<svg width="9" height="13" viewBox="0 0 9 13" fill="none" xmlns="http://www.w3.org/2000/svg">
<path d="M6.42857 4.28577C6.42857 5.46601 5.46596 6.42862 4.28571 6.42862C3.10547 6.42862 2.14286 5.46601 2.14286 4.28577C2.14286 3.10552 3.10547 2.14291 4.28571 2.14291C5.46596 2.14291 6.42857 3.10552 6.42857 4.28577ZM8.57143 4.28577C8.57143 1.9169 6.65458 5.16772e-05 4.28571 5.16772e-05C1.91685 5.16772e-05 0 1.9169 0 4.28577C0 4.79637 0.0585938 5.32371 0.276228 5.78409L3.33147 12.2629C3.49888 12.6312 3.88393 12.8572 4.28571 12.8572C4.6875 12.8572 5.07254 12.6312 5.24833 12.2629L8.2952 5.78409C8.51284 5.32371 8.57143 4.79637 8.57143 4.28577Z" fill="#2C4058"/>
</svg>
