<svg width="50" height="50" viewBox="0 0 50 50" fill="none" xmlns="http://www.w3.org/2000/svg">
<g clip-path="url(#clip0_0_541)">
<g opacity="0.848005" filter="url(#filter0_f_0_541)">
<rect x="0.490204" y="25" width="49.0196" height="25" rx="12.5" fill="#7752BE"/>
</g>
<rect width="49.0196" height="50" rx="19" fill="#7752BE"/>
<path d="M28.7435 27.5982L19.6007 18.4554C19.4935 18.3393 19.3507 18.2857 19.1989 18.2857C19.1274 18.2857 19.0471 18.3036 18.9846 18.3304C18.7703 18.4196 18.6274 18.625 18.6274 18.8571V32.2857C18.6274 32.5179 18.7703 32.7232 18.9846 32.8125C19.0471 32.8393 19.1274 32.8571 19.1989 32.8571C19.3507 32.8571 19.4935 32.7946 19.6007 32.6875L22.3864 29.9018L24.0917 33.9375C24.2167 34.2232 24.5471 34.3661 24.8417 34.2411L26.4221 33.5714C26.7078 33.4464 26.8507 33.1161 26.7257 32.8214L24.931 28.5714H28.3417C28.5739 28.5714 28.7792 28.4286 28.8685 28.2143C28.9578 28.0089 28.9132 27.7589 28.7435 27.5982Z" fill="white"/>
</g>
<defs>
<filter id="filter0_f_0_541" x="-26.6926" y="-2.18282" width="103.385" height="79.3656" filterUnits="userSpaceOnUse" color-interpolation-filters="sRGB">
<feFlood flood-opacity="0" result="BackgroundImageFix"/>
<feBlend mode="normal" in="SourceGraphic" in2="BackgroundImageFix" result="shape"/>
<feGaussianBlur stdDeviation="13.5914" result="effect1_foregroundBlur_0_541"/>
</filter>
<clipPath id="clip0_0_541">
<rect width="50" height="50" fill="white"/>
</clipPath>
</defs>
</svg>
