<svg width="14" height="14" viewBox="0 0 14 14" fill="none" xmlns="http://www.w3.org/2000/svg">
<path d="M4.4375 4.46875C5.14583 3.76042 6 3.40625 7 3.40625C8 3.40625 8.84375 3.76042 9.53125 4.46875C10.2396 5.15625 10.5938 6 10.5938 7C10.5938 8 10.2396 8.85417 9.53125 9.5625C8.84375 10.25 8 10.5938 7 10.5938C6 10.5938 5.14583 10.25 4.4375 9.5625C3.75 8.85417 3.40625 8 3.40625 7C3.40625 6 3.75 5.15625 4.4375 4.46875ZM5.34375 8.65625C5.80208 9.11458 6.35417 9.34375 7 9.34375C7.64583 9.34375 8.19792 9.11458 8.65625 8.65625C9.11458 8.19792 9.34375 7.64583 9.34375 7C9.34375 6.35417 9.11458 5.80208 8.65625 5.34375C8.19792 4.88542 7.64583 4.65625 7 4.65625C6.35417 4.65625 5.80208 4.88542 5.34375 5.34375C4.88542 5.80208 4.65625 6.35417 4.65625 7C4.65625 7.64583 4.88542 8.19792 5.34375 8.65625ZM11.3125 2.6875C11.4792 2.83333 11.5625 3.02083 11.5625 3.25C11.5625 3.47917 11.4792 3.67708 11.3125 3.84375C11.1667 4.01042 10.9792 4.09375 10.75 4.09375C10.5208 4.09375 10.3229 4.01042 10.1562 3.84375C9.98958 3.67708 9.90625 3.47917 9.90625 3.25C9.90625 3.02083 9.98958 2.83333 10.1562 2.6875C10.3229 2.52083 10.5208 2.4375 10.75 2.4375C10.9792 2.4375 11.1667 2.52083 11.3125 2.6875ZM13.9688 4.125C13.9896 4.6875 14 5.64583 14 7C14 8.35417 13.9896 9.3125 13.9688 9.875C13.9062 11.1458 13.5208 12.1354 12.8125 12.8438C12.125 13.5312 11.1458 13.8958 9.875 13.9375C9.3125 13.9792 8.35417 14 7 14C5.64583 14 4.6875 13.9792 4.125 13.9375C2.85417 13.875 1.875 13.5 1.1875 12.8125C0.916667 12.5625 0.697917 12.2708 0.53125 11.9375C0.364583 11.6042 0.239583 11.2812 0.15625 10.9688C0.09375 10.6562 0.0625 10.2917 0.0625 9.875C0.0208333 9.3125 0 8.35417 0 7C0 5.64583 0.0208333 4.67708 0.0625 4.09375C0.125 2.84375 0.5 1.875 1.1875 1.1875C1.875 0.479167 2.85417 0.09375 4.125 0.03125C4.6875 0.0104167 5.64583 0 7 0C8.35417 0 9.3125 0.0104167 9.875 0.03125C11.1458 0.09375 12.125 0.479167 12.8125 1.1875C13.5208 1.875 13.9062 2.85417 13.9688 4.125ZM12.4688 11.125C12.5312 10.9583 12.5833 10.75 12.625 10.5C12.6667 10.2292 12.6979 9.91667 12.7188 9.5625C12.7396 9.1875 12.75 8.88542 12.75 8.65625C12.75 8.42708 12.75 8.10417 12.75 7.6875C12.75 7.27083 12.75 7.04167 12.75 7C12.75 6.9375 12.75 6.70833 12.75 6.3125C12.75 5.89583 12.75 5.57292 12.75 5.34375C12.75 5.11458 12.7396 4.82292 12.7188 4.46875C12.6979 4.09375 12.6667 3.78125 12.625 3.53125C12.5833 3.26042 12.5312 3.04167 12.4688 2.875C12.2188 2.22917 11.7708 1.78125 11.125 1.53125C10.9583 1.46875 10.7396 1.41667 10.4688 1.375C10.2188 1.33333 9.90625 1.30208 9.53125 1.28125C9.17708 1.26042 8.88542 1.25 8.65625 1.25C8.44792 1.25 8.125 1.25 7.6875 1.25C7.27083 1.25 7.04167 1.25 7 1.25C6.95833 1.25 6.72917 1.25 6.3125 1.25C5.89583 1.25 5.57292 1.25 5.34375 1.25C5.11458 1.25 4.8125 1.26042 4.4375 1.28125C4.08333 1.30208 3.77083 1.33333 3.5 1.375C3.25 1.41667 3.04167 1.46875 2.875 1.53125C2.22917 1.78125 1.78125 2.22917 1.53125 2.875C1.46875 3.04167 1.41667 3.26042 1.375 3.53125C1.33333 3.78125 1.30208 4.09375 1.28125 4.46875C1.26042 4.82292 1.25 5.11458 1.25 5.34375C1.25 5.55208 1.25 5.875 1.25 6.3125C1.25 6.72917 1.25 6.95833 1.25 7C1.25 7.08333 1.25 7.28125 1.25 7.59375C1.25 7.88542 1.25 8.13542 1.25 8.34375C1.25 8.53125 1.25 8.78125 1.25 9.09375C1.27083 9.40625 1.29167 9.67708 1.3125 9.90625C1.33333 10.1146 1.36458 10.3333 1.40625 10.5625C1.44792 10.7917 1.48958 10.9792 1.53125 11.125C1.80208 11.7708 2.25 12.2188 2.875 12.4688C3.04167 12.5312 3.25 12.5833 3.5 12.625C3.77083 12.6667 4.08333 12.6979 4.4375 12.7188C4.8125 12.7396 5.10417 12.75 5.3125 12.75C5.54167 12.75 5.86458 12.75 6.28125 12.75C6.71875 12.75 6.95833 12.75 7 12.75C7.0625 12.75 7.29167 12.75 7.6875 12.75C8.10417 12.75 8.42708 12.75 8.65625 12.75C8.88542 12.75 9.17708 12.7396 9.53125 12.7188C9.90625 12.6979 10.2188 12.6667 10.4688 12.625C10.7396 12.5833 10.9583 12.5312 11.125 12.4688C11.7708 12.1979 12.2188 11.75 12.4688 11.125Z" fill="white"/>
</svg>
