<svg width="16" height="13" viewBox="0 0 16 13" fill="none" xmlns="http://www.w3.org/2000/svg">
<path d="M14.3438 3.25C14.3646 3.33333 14.375 3.46875 14.375 3.65625C14.375 4.76042 14.1667 5.86458 13.75 6.96875C13.3333 8.05208 12.7396 9.05208 11.9688 9.96875C11.2188 10.8646 10.2396 11.5938 9.03125 12.1562C7.82292 12.7188 6.48958 13 5.03125 13C3.19792 13 1.52083 12.5104 0 11.5312C0.229167 11.5521 0.489583 11.5625 0.78125 11.5625C2.30208 11.5625 3.66667 11.0938 4.875 10.1562C4.14583 10.1562 3.5 9.94792 2.9375 9.53125C2.39583 9.09375 2.02083 8.55208 1.8125 7.90625C2.02083 7.92708 2.21875 7.9375 2.40625 7.9375C2.69792 7.9375 2.98958 7.90625 3.28125 7.84375C2.78125 7.73958 2.33333 7.53125 1.9375 7.21875C1.54167 6.90625 1.22917 6.53125 1 6.09375C0.770833 5.63542 0.65625 5.14583 0.65625 4.625V4.5625C1.11458 4.83333 1.60417 4.97917 2.125 5C1.14583 4.33333 0.65625 3.41667 0.65625 2.25C0.65625 1.66667 0.8125 1.11458 1.125 0.59375C1.9375 1.61458 2.92708 2.42708 4.09375 3.03125C5.28125 3.63542 6.54167 3.96875 7.875 4.03125C7.83333 3.78125 7.8125 3.53125 7.8125 3.28125C7.8125 2.38542 8.125 1.61458 8.75 0.96875C9.39583 0.322917 10.1667 0 11.0625 0C12.0208 0 12.8229 0.34375 13.4688 1.03125C14.2188 0.885417 14.9167 0.625 15.5625 0.25C15.3125 1.02083 14.8333 1.625 14.125 2.0625C14.75 1.97917 15.375 1.80208 16 1.53125C15.5417 2.19792 14.9896 2.77083 14.3438 3.25Z" fill="white"/>
</svg>
