<svg width="5" height="8" viewBox="0 0 5 8" fill="none" xmlns="http://www.w3.org/2000/svg">
<path d="M4.54688 0.648437C4.54688 0.578125 4.51563 0.515624 4.46875 0.46875L4.07812 0.0781244C4.03125 0.03125 3.96094 -7.15256e-07 3.89844 -7.15256e-07C3.83594 -7.15256e-07 3.76563 0.03125 3.71875 0.0781244L0.078125 3.71875C0.03125 3.76562 1.49012e-08 3.83594 1.49012e-08 3.89844C1.49012e-08 3.96094 0.03125 4.03125 0.078125 4.07812L3.71875 7.71875C3.76563 7.76562 3.83594 7.79687 3.89844 7.79687C3.96094 7.79687 4.03125 7.76562 4.07812 7.71875L4.46875 7.32812C4.51563 7.28125 4.54688 7.21094 4.54688 7.14844C4.54688 7.08594 4.51563 7.01562 4.46875 6.96875L1.39844 3.89844L4.46875 0.828125C4.51563 0.78125 4.54688 0.710937 4.54688 0.648437Z" fill="white"/>
</svg>
