<svg width="5" height="8" viewBox="0 0 5 8" fill="none" xmlns="http://www.w3.org/2000/svg">
<path d="M4.54688 3.89844C4.54688 3.83594 4.51563 3.76562 4.46875 3.71875L0.828125 0.0781244C0.78125 0.03125 0.710938 -7.15256e-07 0.648438 -7.15256e-07C0.585938 -7.15256e-07 0.515625 0.03125 0.46875 0.0781244L0.078125 0.46875C0.03125 0.515624 3.72529e-09 0.585937 3.72529e-09 0.648437C3.72529e-09 0.710937 0.03125 0.78125 0.078125 0.828125L3.14844 3.89844L0.078125 6.96875C0.03125 7.01562 3.72529e-09 7.08594 3.72529e-09 7.14844C3.72529e-09 7.21875 0.03125 7.28125 0.078125 7.32812L0.46875 7.71875C0.515625 7.76562 0.585938 7.79687 0.648438 7.79687C0.710938 7.79687 0.78125 7.76562 0.828125 7.71875L4.46875 4.07812C4.51563 4.03125 4.54688 3.96094 4.54688 3.89844Z" fill="white"/>
</svg>
