<svg width="9" height="5" viewBox="0 0 9 5" fill="none" xmlns="http://www.w3.org/2000/svg">
<path d="M8.3538 0.694745C8.3538 0.627781 8.32031 0.552446 8.27009 0.502223L7.85156 0.0836961C7.80134 0.0334731 7.726 -8.91089e-06 7.65904 -8.91089e-06C7.59208 -8.91089e-06 7.51674 0.0334731 7.46652 0.0836961L4.1769 3.37332L0.887277 0.0836961C0.837054 0.0334731 0.761719 -8.91089e-06 0.694754 -8.91089e-06C0.61942 -8.91089e-06 0.552455 0.0334731 0.502232 0.0836961L0.0837054 0.502223C0.0334822 0.552446 5.58794e-08 0.627781 5.58794e-08 0.694745C5.58794e-08 0.76171 0.0334822 0.837045 0.0837054 0.887268L3.98438 4.78794C4.0346 4.83816 4.10993 4.87164 4.1769 4.87164C4.24386 4.87164 4.3192 4.83816 4.36942 4.78794L8.27009 0.887268C8.32031 0.837045 8.3538 0.76171 8.3538 0.694745Z" fill="white"/>
</svg>
