<svg width="24" height="24" viewBox="0 0 24 24" fill="none" xmlns="http://www.w3.org/2000/svg">
<path fill-rule="evenodd" clip-rule="evenodd" d="M10.2932 6.56175C9.78269 6.05124 8.89018 5.538 7.24352 5.94977C5.5912 6.36296 4.37225 7.59405 3.96737 9.11196C3.56999 10.6017 3.92954 12.4933 5.70897 14.2725L11.2965 19.8592C11.6872 20.2498 12.318 20.2497 12.7086 19.8588C13.9634 18.6032 15.9572 16.6084 18.293 14.2725C20.0716 12.494 20.4313 10.6023 20.034 9.11227C19.6293 7.5942 18.4106 6.36295 16.7579 5.94979C15.1107 5.53797 14.218 6.0513 13.7076 6.56175C13.4284 6.84097 13.2362 7.15055 13.1136 7.39562C13.0532 7.51647 13.0122 7.61671 12.9876 7.68234C12.9753 7.71501 12.9673 7.73861 12.9632 7.75134L12.9599 7.76142C12.835 8.18688 12.4445 8.47962 12.0005 8.47964C11.5565 8.47967 11.166 8.18699 11.041 7.76155L11.0378 7.75144C11.0336 7.73871 11.0256 7.71511 11.0134 7.68244C10.9887 7.6168 10.9477 7.51655 10.8872 7.39569C10.7647 7.15059 10.5724 6.84099 10.2932 6.56175ZM12.0004 5.46775C12.0902 5.36056 12.1877 5.25324 12.2934 5.14753C13.2829 4.15799 14.8903 3.42132 17.243 4.0095C19.5903 4.59633 21.3714 6.36509 21.9665 8.59701C22.5691 10.857 21.9287 13.4653 19.7073 15.6868C17.3716 18.0224 15.3779 20.0171 14.1232 21.2726C12.9518 22.4448 11.0544 22.4453 9.88243 21.2735L4.29487 15.6868C2.07254 13.4648 1.43211 10.8565 2.03493 8.5965C2.63024 6.36468 4.41167 4.59633 6.75833 4.00952C9.11066 3.42129 10.7179 4.15804 11.7074 5.14753C11.8131 5.25324 11.9106 5.36056 12.0004 5.46775Z" fill="#047857"/>
</svg>
